<svg xmlns="http://www.w3.org/2000/svg" width="150" height="150" fill="none"><path fill="#339FFF" fill-rule="evenodd" d="M122.826 74.829c-7.306 5.23-16.937 7.45-32.387 7.468l-10.555.012-22.615 29.371c-12.439 16.155-22.986 30.736-23.205 31.303 4.295 0 3.957.093 30.5-.157l30.703-.29 5.726-1.915c17.754-5.938 31.33-20.386 35.115-37.369 2.283-10.24.132-20.016-5.871-26.68-1.787-1.984-3.622-3.591-4.078-3.572-.455.02-1.955.843-3.333 1.829ZM4 84.754s0 1.072 7.695 8.261c4.394 3.719 6.621 7.1 6.621 7.1-.132.623-2.674 10.158-5.79 21.265-3.114 11.106-6.02 21.215-6.02 21.603h26.127c0-.357 17.18-63.23 17.18-60.73H4v2.5Z" clip-rule="evenodd"/><path fill="#355DFF" fill-rule="evenodd" d="M81.724 7.633c.24-.47.877-.472 1.405-.485 4.547-.111 25.707-.114 35.444-.148C135.727 8.648 146 19.56 146 36.131c0 8.633-2.395 16.206-7.576 23.956-4.856 7.264-15.325 16.463-15.086 13.256.12-1.598-5.635-3.534-13.019-4.382-3.782-.434-13.971-.532-25.786-.248-15.449.371-19.533.282-19.533-.424 0-.492 3.71-14.047 8.244-30.124 4.052-14.365 7.638-27.323 8.279-29.993.042-.174.1-.339.18-.499l.021-.04Z" clip-rule="evenodd"/><path fill="#355DFF" d="M35.215 35.3c-1.392-1.367-9.383-8.893-16.738-15.321C10.764 13.237 4.157 8.577 4 8.08c6.06-.36 5.704-.36 37.074-.72C70.66 7.02 79.574 7 81 7c-.106-.109-12.838 18.007-28.059 38.585-20.779 26.608 0 0-29.038 37.414-.751 0 3.268-17.437 3.268-18.01 1.07-4.322-1.764 5.617 1.744-6.983 5.217-18.746 6.01-22.407 6.3-22.707Z"/><path fill="#1C37DA" fill-rule="evenodd" d="M85.386 74.85c-2.954 3.958-5.014 7.603-5.37 7.982-.357.378 5.347 0 12.12 0 8.198 0 13.921-.76 18.18-1.892C117.144 79.124 126 74.61 126 72.993c0-2.741-13.902-5.298-28.162-4.963h-7.13l-5.322 6.82Z" clip-rule="evenodd"/></svg>